#!OML:ASF H:\Male1\Project 1\Capture day 1\Session 1\Male1.ASF
:FULLY-SPECIFIED
:DEGREES
210
root 9.20019 18.7943 -0.561151 -171.936 -245.187 -175.561
lowerback 23.0751 -5.50911 0.625314
upperback 12.0064 -6.18191 1.34316
thorax 0.459285 -2.80619 2.43551
lowerneck 1.82767 10.4867 16.0731
upperneck -13.9395 12.7536 -32.1436
head -0.645866 7.47831 -13.0562
rclavicle -3.46879e-014 7.59357e-014
rhumerus -68.5627 3.30401 -108.329
rradius 54.0643
rwrist -24.2224
rhand -31.499 7.08319
rfingers 7.12502
rthumb -4.76496 -22.8432
lclavicle -3.46879e-014 7.59357e-014
lhumerus -6.03608 -12.8518 74.3002
lradius 48.895
lwrist 5.97707
lhand -37.1892 23.6054
lfingers 7.12502
lthumb -10.2571 53.3353
rfemur -38.4759 22.6017 10.6641
rtibia 34.8853
rfoot 2.70431 -9.62009
rtoes -41.4663
lfemur -14.6329 11.9152 -25.5727
ltibia 38.3998
lfoot -8.06403 16.6171
ltoes -19.0293
211
root 9.08653 18.3928 -0.448311 -164.236 -251.107 -167.885
lowerback 23.564 -5.78983 0.0358457
upperback 12.1215 -6.52179 1.69203
thorax 0.482215 -2.97051 3.24308
lowerneck 1.72182 10.1981 15.9966
upperneck -13.1864 12.5112 -32.4327
head -0.463006 7.35551 -13.1431
rclavicle -6.10269e-014 6.4605e-014
rhumerus -68.4646 4.98765 -111.223
rradius 53.385
rwrist -23.4299
rhand -31.6644 5.38963
rfingers 7.12502
rthumb -4.92466 -24.5331
lclavicle -6.10269e-014 6.4605e-014
lhumerus -3.8985 -14.5968 77.3833
lradius 48.3502
lwrist 5.90807
lhand -37.1833 23.4924
lfingers 7.12502
lthumb -10.2515 53.2226
rfemur -40.1649 22.4042 7.60246
rtibia 35.9904
rfoot 5.13867 -9.53299
rtoes -43.2109
lfemur -15.5214 15.4348 -27.9472
ltibia 40.295
lfoot -8.9308 15.7605
ltoes -15.1067
212
root 8.98136 17.9142 -0.319039 -162.432 -256.631 -166.014
lowerback 24.4517 -6.01073 1.8686
upperback 12.3975 -6.23165 2.48043
thorax 0.251743 -2.70618 3.07522
lowerneck 1.48902 9.81981 16.1445
upperneck -12.2848 12.1771 -32.4447
head -0.252882 7.13913 -13.1634
rclavicle -4.25399e-014 5.76476e-014
rhumerus -67.9344 6.57412 -113.083
rradius 52.8046
rwrist -23.1946
rhand -30.1689 6.03738
rfingers 7.12502
rthumb -3.48059 -23.914
lclavicle -4.25399e-014 5.76476e-014
lhumerus -2.66157 -16.505 80.0472
lradius 48.4903
lwrist 5.82699
lhand -37.4396 23.2637
lfingers 7.12502
lthumb -10.4987 52.9815
rfemur -40.6217 22.6543 8.47025
rtibia 37.8094
rfoot 8.37871 -9.12148
rtoes -40.9359
lfemur -16.596 19.0396 -27.1542
ltibia 42.1765
lfoot -8.06571 14.262
ltoes -17.7484
213
root 8.91395 17.337 -0.181004 -134.374 -260.171 -137.493
lowerback 24.5583 -5.94271 -0.106841
upperback 12.5364 -6.45674 2.25979
thorax 0.56397 -2.86625 3.98504
lowerneck 1.30206 9.47717 16.3402
upperneck -11.1275 11.9447 -32.3531
head 0.0352974 6.94908 -13.1362
rclavicle -2.8625e-014 -1.03368e-014
rhumerus -67.1548 7.85343 -114.092
rradius 52.0851
rwrist -22.156
rhand -31.6828 5.11091
rfingers 7.12502
rthumb -4.94245 -24.8114
lclavicle -2.8625e-014 -1.03368e-014
lhumerus -2.53768 -17.9693 82.5026
lradius 49.1424
lwrist 5.1573
lhand -38.142 22.9374
lfingers 7.12502
lthumb -11.1762 52.6197
rfemur -40.2465 21.1239 5.93962
rtibia 40.3186
rfoot 10.6712 -7.20841
rtoes -39.9679
lfemur -17.0354 21.6759 -30.8819
ltibia 42.9722
lfoot -7.60425 11.7111
ltoes -21.9171
214
root 8.86733 16.7013 -0.0260074 -109.019 -264.88 -112.1
lowerback 24.5641 -6.42169 2.31356
upperback 12.4355 -6.41759 3.42633
thorax 0.326681 -2.72534 3.90115
lowerneck 2.17974 9.33248 15.7311
upperneck -10.3232 11.9743 -31.7238
head -0.014997 6.98105 -12.8068
rclavicle -1.35174e-014 1.27222e-014
rhumerus -67.1654 9.31588 -113.758
rradius 52.0344
rwrist -23.4909
rhand -31.4244 5.72147
rfingers 7.12502
rthumb -4.69298 -24.2066
lclavicle -1.35174e-014 1.27222e-014
lhumerus -3.84562 -18.7061 85.0365
lradius 49.99
lwrist 4.3446
lhand -39.4257 22.3848
lfingers 7.12502
lthumb -12.4141 51.9962
rfemur -38.7505 20.6561 10.0974
rtibia 41.8377
rfoot 12.1563 -6.94427
rtoes -37.9845
lfemur -18.4239 23.1217 -28.7095
ltibia 44.2805
lfoot -7.44139 9.77565
ltoes -23.6322
